<?xml version="1.0"?>
<svg xmlns="http://www.w3.org/2000/svg" xmlns:xlink="http://www.w3.org/1999/xlink" xmlns:svgjs="http://svgjs.com/svgjs" version="1.1" width="512" height="512" x="0" y="0" viewBox="0 0 512 512" style="enable-background:new 0 0 512 512" xml:space="preserve" class=""><g><path xmlns="http://www.w3.org/2000/svg" d="m437 146h-91v90h-220v110c0 11.046875 8.953125 20 20 20v71c0 41.421875 33.578125 75 75 75h70c41.421875 0 75-33.578125 75-75v-41h-89.574219c-8.078125 0-15.027343-6.207031-15.410156-14.273438-.40625-8.617187 6.460937-15.726562 14.984375-15.726562h161c41.421875 0 75-33.578125 75-75v-70c0-41.421875-33.578125-75-75-75zm0 0" fill="#feef55" data-original="#feef55" style="" class=""/><path xmlns="http://www.w3.org/2000/svg" d="m437 146h-91v90h-90v276h35c41.421875 0 75-33.578125 75-75v-41h-89.574219c-8.078125 0-15.027343-6.207031-15.410156-14.273438-.40625-8.617187 6.460937-15.726562 14.984375-15.726562h161c41.421875 0 75-33.578125 75-75v-70c0-41.421875-33.578125-75-75-75zm0 0" fill="#fedc00" data-original="#fedc00" style="" class=""/><path xmlns="http://www.w3.org/2000/svg" d="m186 256h140c22.089844 0 40-17.910156 40-40v-141c0-41.355469-33.644531-75-75-75h-70c-41.355469 0-75 33.644531-75 75v41h90c8.285156 0 15 6.714844 15 15s-6.714844 15-15 15h-161c-41.355469 0-75 33.644531-75 75v70c0 41.355469 33.644531 75 75 75h71v-70c0-22.089844 17.910156-40 40-40zm0 0" fill="#7880ea" data-original="#78e0ea" style="" class=""/><path xmlns="http://www.w3.org/2000/svg" d="m291 0h-35v256h70c22.089844 0 40-17.910156 40-40v-141c0-41.355469-33.644531-75-75-75zm0 0" fill="#7880ea" data-original="#3cccdd" style="" class=""/><path xmlns="http://www.w3.org/2000/svg" d="m236 61c0 8.285156-6.714844 15-15 15s-15-6.714844-15-15 6.714844-15 15-15 15 6.714844 15 15zm0 0" fill="#5a5a6e" data-original="#5a5a6e" style="" class=""/><path xmlns="http://www.w3.org/2000/svg" d="m306 451c0 8.285156-6.714844 15-15 15s-15-6.714844-15-15 6.714844-15 15-15 15 6.714844 15 15zm0 0" fill="#46465a" data-original="#46465a" style="" class=""/></g></svg>
